<svg xmlns="http://www.w3.org/2000/svg" version="1.1" xmlns:xlink="http://www.w3.org/1999/xlink" xmlns:svgjs="http://svgjs.dev/svgjs" width="1500" height="1500" viewBox="0 0 1500 1500"><rect width="1500" height="1500" fill="#28353b"></rect><g transform="matrix(0.6666666666666666,0,0,0.6666666666666666,249.517867271696,373.9713900134953)"><svg viewBox="0 0 328 247" data-background-color="#28353b" preserveAspectRatio="xMidYMid meet" height="1129" width="1500" xmlns="http://www.w3.org/2000/svg" xmlns:xlink="http://www.w3.org/1999/xlink"><g id="tight-bounds" transform="matrix(1,0,0,1,0.15813953488370203,-0.09999999999999432)"><svg viewBox="0 0 327.6837209302326 247.2" height="247.2" width="327.6837209302326"><g><svg viewBox="0 0 327.68372093023265 247.20000000000002" height="247.2" width="327.6837209302326"><g><svg viewBox="0 0 327.68372093023265 247.20000000000002" height="247.20000000000002" width="327.68372093023265"><g id="textblocktransform"><svg viewBox="0 0 327.68372093023265 247.20000000000002" height="247.20000000000002" width="327.68372093023265" id="textblock"><g><svg viewBox="0 0 327.68372093023265 247.20000000000002" height="247.20000000000002" width="327.68372093023265"><g transform="matrix(1,0,0,1,0,0)"><svg width="327.68372093023265" viewBox="4.8 -41.5 59.85000000000001 45.15" height="247.20000000000002" data-palette-color="#ffffff"><path d="M4.8-3.2L4.8-3.2Q4.8-5.4 5.85-9.38 6.9-13.35 8.8-18.65L8.8-18.65Q11.9-27.1 14.63-32.73 17.35-38.35 19.95-41.5L19.95-41.5Q20.55-41.4 21.43-41 22.3-40.6 23.15-40.13 24-39.65 24.68-39.15 25.35-38.65 25.55-38.35L25.55-38.35Q21.65-33.75 18.7-28.45 15.75-23.15 13.3-16.3L13.3-16.3Q11.2-10.4 10.1-5.68 9-0.95 9 2.2L9 2.2Q9 3.05 9 3.25 9 3.45 9.05 3.65L9.05 3.65Q8.35 3.55 7.85 3.3 7.35 3.05 7.2 2.7L7.2 2.7Q7.1 2.45 6.65 1.98 6.2 1.5 5.85 1.25L5.85 1.25Q5.4 0.95 5.1-0.33 4.8-1.6 4.8-3.2ZM16.7-3.35L16.7-3.35Q16.7-3.8 16.77-4.48 16.85-5.15 17.05-6.28 17.25-7.4 17.57-9 17.9-10.6 18.4-12.85L18.4-12.85Q18.5-13.35 18.85-14.45 19.2-15.55 19.77-16.78 20.35-18 21.17-19.15 22-20.3 23.15-20.85L23.15-20.85Q24-20.65 25.4-19.83 26.8-19 27.8-17.55L27.8-17.55Q26.65-16.25 25.87-14.95 25.1-13.65 24.47-12.25 23.85-10.85 23.32-9.35 22.8-7.85 22.15-6.2L22.15-6.2Q21.6-4.8 21.15-3.33 20.7-1.85 20.65-0.75L20.65-0.75Q20.65 0.15 20.62 0.53 20.6 0.9 20.35 0.9L20.35 0.9Q20.15 0.9 19.55 0.65 18.95 0.4 18.32-0.13 17.7-0.65 17.2-1.45 16.7-2.25 16.7-3.35ZM26.25-25.05L26.25-25.05Q26.25-25.35 26.4-25.95L26.4-25.95Q26.15-26.2 25.97-26.7 25.8-27.2 25.8-27.6L25.8-27.6Q25.8-28.05 25.92-28.83 26.05-29.6 26.25-30.5 26.45-31.4 26.75-32.38 27.05-33.35 27.35-34.15L27.35-34.15Q27.95-34.15 28.82-33.83 29.7-33.5 30.6-32.98 31.5-32.45 32.25-31.83 33-31.2 33.4-30.65L33.4-30.65Q32.85-30.1 31.95-29.13 31.05-28.15 30.2-27.08 29.35-26 28.65-25.05 27.95-24.1 27.75-23.7L27.75-23.7Q27.15-23.8 26.7-24.23 26.25-24.65 26.25-25.05ZM57.34-15.35L57.34-15.35Q56.55-15.3 55.4-14.33 54.25-13.35 52.92-11.83 51.59-10.3 50.17-8.45 48.75-6.6 47.42-4.78 46.09-2.95 44.95-1.35 43.8 0.25 43 1.2L43 1.2Q41.9 0.75 41.09-0.13 40.3-1 39.95-2.3L39.95-2.3Q40.2-3.85 40.65-5.53 41.09-7.2 41.82-9 42.55-10.8 43.62-12.78 44.7-14.75 46.25-16.95L46.25-16.95Q45.5-16.9 44.2-15.88 42.9-14.85 41.4-13.23 39.9-11.6 38.3-9.58 36.7-7.55 35.3-5.6L35.3-5.6Q33.45-3 32.22-1.05 31 0.9 30.45 1.25L30.45 1.25Q29.15 0.3 28.65-0.8 28.15-1.9 27.9-3.25L27.9-3.25Q27.95-4.45 28.27-6.25 28.6-8.05 29.2-9.95L29.2-9.95Q30.35-13.6 32.17-17.2 34-20.8 35.7-23.8L35.7-23.8Q37.09-23.5 38.22-22.85 39.34-22.2 40.59-20.95L40.59-20.95Q40.09-19.4 39.05-17.68 38-15.95 36.84-14.05 35.7-12.15 34.75-10.15 33.8-8.15 33.5-6.1L33.5-6.1Q34.9-8.1 36.82-10.7 38.75-13.3 40.77-15.6 42.8-17.9 44.8-19.5 46.8-21.1 48.4-21.1L48.4-21.1Q49-21.1 49.7-20.9 50.4-20.7 51-20.4 51.59-20.1 52-19.83 52.4-19.55 52.45-19.4L52.45-19.4Q52.2-18.4 51.27-16.68 50.34-14.95 49.3-13.05 48.25-11.15 47.34-9.38 46.45-7.6 46.3-6.55L46.3-6.55Q48.75-9.9 50.9-12.63 53.05-15.35 54.95-17.3 56.84-19.25 58.47-20.3 60.09-21.35 61.55-21.35L61.55-21.35Q62.55-21.35 63.42-20.83 64.3-20.3 64.65-19.3L64.65-19.3Q64.2-17.8 63.17-15.7 62.15-13.6 61.09-11.28 60.05-8.95 59.22-6.7 58.4-4.45 58.4-2.65L58.4-2.65Q58.4-1.6 58.7-1.28 59-0.95 59.55-0.95L59.55-0.95Q60.15-0.95 60.67-1.18 61.2-1.4 61.45-1.4L61.45-1.4Q61.75-1.2 61.8-0.9 61.84-0.6 61.84-0.35L61.84-0.35Q60.84 0.45 59.8 0.98 58.75 1.5 57.45 1.5L57.45 1.5Q56.25 1.5 55.47 1.1 54.7 0.7 54.2 0 53.7-0.7 53.5-1.6 53.3-2.5 53.3-3.55L53.3-3.55Q53.3-5.25 53.75-6.93 54.2-8.6 54.82-10.13 55.45-11.65 56.15-12.98 56.84-14.3 57.34-15.35Z" opacity="1" transform="matrix(1,0,0,1,0,0)" fill="#ffffff" class="wordmark-text-0" data-fill-palette-color="primary" id="text-0"></path></svg></g></svg></g></svg></g></svg></g></svg></g><defs></defs></svg><rect width="327.6837209302326" height="247.2" fill="none" stroke="none" visibility="hidden"></rect></g></svg></g></svg>