<svg xmlns="http://www.w3.org/2000/svg" version="1.1" xmlns:xlink="http://www.w3.org/1999/xlink" xmlns:svgjs="http://svgjs.dev/svgjs" width="1000" height="1000" viewBox="0 0 1000 1000"><rect width="1000" height="1000" fill="#ffffff"></rect><g transform="matrix(0.7,0,0,0.7,149.57575757575756,382.50454169815623)"><svg viewBox="0 0 396 133" data-background-color="#ffffff" preserveAspectRatio="xMidYMid meet" height="335" width="1000" xmlns="http://www.w3.org/2000/svg" xmlns:xlink="http://www.w3.org/1999/xlink"><g id="tight-bounds" transform="matrix(1,0,0,1,0.2400000000000091,0.1392151562695858)"><svg viewBox="0 0 395.52 132.72156968746083" height="132.72156968746083" width="395.52"><g><svg viewBox="0 0 395.52 132.72156968746083" height="132.72156968746083" width="395.52"><g><svg viewBox="0 0 728.423358274475 244.43135999999996" height="132.72156968746083" width="395.52"><g transform="matrix(1,0,0,1,0,47.26354740331492)"><svg viewBox="0 0 395.5199999999999 149.90426519337012" height="149.90426519337012" width="395.5199999999999"><g id="textblocktransform"><svg viewBox="0 0 395.5199999999999 149.90426519337012" height="149.90426519337012" width="395.5199999999999" id="textblock"><g><svg viewBox="0 0 395.5199999999999 149.90426519337012" height="149.90426519337012" width="395.5199999999999"><g transform="matrix(1,0,0,1,0,0)"><svg width="395.5199999999999" viewBox="2.95 -33.65 90.5 34.3" height="149.90426519337012" data-palette-color="#0718c4"><path d="M19.15 0Q14 0 11.65-0.05L11.65-0.05Q9.5-0.05 8.35-0.1L8.35-0.1 4.25-0.15Q3.8-0.15 3.4-0.55L3.4-0.55Q3-0.95 3-1.4L3-1.4 3-12.4 3-17.2 2.95-21.3Q2.95-23.35 3.05-26.45L3.05-26.45Q3.05-27.1 3.2-29.8L3.2-29.8 3.2-30.95Q3.2-32.35 3.75-33.2L3.75-33.2Q4-33.65 4.55-33.65L4.55-33.65Q7-33.65 9.9-33.55L9.9-33.55Q10.3-33.5 11.05-33.5L11.05-33.5Q12.7-33.5 13.5-33.45L13.5-33.45 16.2-33.45Q16.4-33.45 17.38-33.45 18.35-33.45 18.9-33.2L18.9-33.2Q19.8-32.7 19.8-30.9L19.8-30.9 19.75-30.5Q19.75-30.35 19.65-29.75L19.65-29.75Q19.5-29 19.5-28.65L19.5-28.65Q19.5-28.1 19.65-27.25L19.65-27.25Q19.75-26.65 19.75-26.45L19.75-26.45 19.8-26.15 19.8-19.15 19.8-15.9 19.8-12.8 19.8-12.2Q19.8-11.8 20.25-11.7L20.25-11.7Q20.4-11.65 20.9-11.65L20.9-11.65 24.55-11.65Q25.9-11.7 28.65-11.7L28.65-11.7Q29.2-11.7 29.55-11.38 29.9-11.05 29.9-10.7L29.9-10.7 29.9-1.15 29.9-1.05Q29.9-0.65 29.5-0.4L29.5-0.4Q29.05-0.2 28.45-0.15L28.45-0.15Q27.8 0 26.4 0L26.4 0 19.15 0ZM36.05 0.65Q35.15 0.65 34.9-1.15L34.9-1.15Q34.75-1.9 34.75-2.5L34.75-2.5Q34.75-3.3 34.7-3.5L34.7-3.5Q34.65-4.95 34.45-8.1L34.45-8.1 34.3-10Q34-14.4 34-16.5L34-16.5 34-28.65Q34-29.05 34.9-29.25L34.9-29.25Q35.4-29.4 36.3-29.4L36.3-29.4Q36.9-29.4 37.6-29.33 38.3-29.25 38.65-29.25L38.65-29.25Q39.4-29.15 41-29.15L41-29.15 41.2-29.3 43.4-29.3Q43.55-29.15 43.75-29.15L43.75-29.15 43.95-29.15Q44-29.2 44.2-29.2L44.2-29.2Q44.3-29.25 44.5-29.25L44.5-29.25Q44.55-29.3 44.6-29.3 44.65-29.3 44.65-29.3L44.65-29.3Q44.8-29.3 45-29.23 45.2-29.15 45.3-29.15L45.3-29.15 49-29.15 49.15-20.55Q49.15-20.5 49.07-20.23 49-19.95 48.95-19.5L48.95-19.5Q48.8-17.7 48.8-16.65L48.8-16.65 48.8-6.9 48.65-5Q48.5-3.75 48.55-2.95L48.55-2.95Q48.55-1.9 48.47-1.28 48.4-0.65 48.15-0.3L48.15-0.3Q47.85 0.05 47.2 0.05L47.2 0.05 47.15 0 47-0.05Q46.9-0.05 46.9 0L46.9 0 46.65 0Q46.35 0.1 46.3 0.15L46.3 0.15Q46.05 0.15 45.15 0L45.15 0 44.45-0.05Q44.2-0.05 44.15 0.15L44.15 0.15 40.4 0.15 39.7 0.15 38.4 0.4 37.2 0.55 36.05 0.65ZM59.7 0.15Q59.25 0.15 59 0.05L59 0.05 58.09 0.05 57.34 0.05 57 0.05 55.09-0.4 54.95-0.75 54.95-1.25 54.9-2.6Q54.8-3.5 54.8-4.15L54.8-4.15 54.75-7.95Q54.7-8.5 54.7-9.45L54.7-9.45Q54.7-11.75 54.84-13.9L54.84-13.9Q54.95-15.3 54.95-18.4L54.95-18.4Q54.95-18.9 54.84-19.25L54.84-19.25 54.84-19.75 54.8-20.05Q54.8-21.2 54.95-22.3L54.95-22.3 55-24.95 54.95-26.15 54.95-27.3Q54.8-27.45 54.8-27.65L54.8-27.65Q54.8-28.4 56-28.75L56-28.75Q56.7-28.95 57.75-28.95L57.75-28.95 65.05-28.95 68.45-28.9Q68.45-28.9 68.52-28.85 68.59-28.8 68.7-28.7L68.7-28.7Q69.09-28.3 69.5-27.65L69.5-27.65Q69.95-26.9 70.25-26.05L70.25-26.05Q70.59-25.05 71.59-22.55L71.59-22.55Q72.4-20.5 72.95-19.3L72.95-19.3Q73.34-18 73.84-18L73.84-18Q74.3-18 74.55-18.65L74.55-18.65Q74.65-18.75 74.84-19.3L74.84-19.3 75.65-21.15Q75.75-21.35 76.34-22.65L76.34-22.65Q76.5-22.9 77.2-24.45L77.2-24.45 77.95-26.05Q78.05-26.35 78.25-26.8 78.45-27.25 78.7-27.65L78.7-27.65Q79.2-28.45 79.5-28.7L79.5-28.7Q79.59-28.9 79.8-28.9L79.8-28.9 83.2-28.95 90.45-28.95 91.05-28.95 91.5-28.95 92.09-28.95Q92.3-28.9 93-28.9L93-28.9Q93.05-28.9 93.2-28.25L93.2-28.25Q93.34-25.7 93.34-24.15L93.34-24.15Q93.45-22.25 93.45-18.4L93.45-18.4 93.45-15.9Q93.45-13.65 93.05-9.45L93.05-9.45 93.05-7.95Q93.09-7.3 93.09-6.15L93.09-6.15 93.15-4.05Q93.2-3.45 93.2-2.45L93.2-2.45Q93.2-1.55 93.25-1.25L93.25-1.25 93.25-0.75 93.09-0.4 91.2 0.05 90.8 0.05 90.09 0.05 89.25 0.05Q88.94 0.15 88.5 0.15L88.5 0.15Q86.55 0.15 84.5-0.03 82.45-0.2 81.95-0.25L81.95-0.25 81.75-0.2 81.5-0.2Q81.2-0.2 81.2-1.15L81.2-1.15Q80.95-2.45 80.95-6.9L80.95-6.9Q80.84-8.15 80.84-10.3L80.84-10.3Q80.84-10.65 80.5-10.65L80.5-10.65Q80.34-10.65 80.2-10.25L80.2-10.25Q79.45-8.45 79.3-8L79.3-8 78.95-6.95 78.55-6.15Q77.65-4.15 76.59-3.05L76.59-3.05Q75.95-2.4 75.25-2.4L75.25-2.4 74.59-2.4 73.7-2.4Q73.05-2.4 72.75-2.45L72.75-2.45Q72.2-2.45 71.95-2.5L71.95-2.5Q70.2-5.2 68.7-8.45L68.7-8.45Q68.5-9.05 68.32-9.45 68.15-9.85 68.05-10.15L68.05-10.15Q67.7-10.65 67.7-10.65L67.7-10.65Q67.34-10.65 67.34-10.3L67.34-10.3 67.34-8.3Q67.34-5.25 67.3-3.9L67.3-3.9Q67.3-1.75 67-0.7L67-0.7Q66.95-0.5 66.87-0.35 66.8-0.2 66.7-0.2L66.7-0.2 66.45-0.2 66.25-0.25Q65.8-0.2 63.77-0.03 61.75 0.15 59.7 0.15L59.7 0.15Z" opacity="1" transform="matrix(1,0,0,1,0,0)" fill="#000000" class="wordmark-text-0" data-fill-palette-color="primary" id="text-0"></path></svg></g></svg></g></svg></g></svg></g><g transform="matrix(1,0,0,1,483.991998274475,0)"><svg viewBox="0 0 244.43135999999996 244.43135999999996" height="244.43135999999996" width="244.43135999999996"><g><svg viewBox="0 0 244.43135999999996 244.43135999999996" height="244.43135999999996" width="244.43135999999996"><g transform="matrix(1,0,0,1,64.6026559364499,64.6032960740491)"><svg viewBox="0 0 115.22604812710013 115.22476785190176" height="115.22476785190176" width="115.22604812710013"><g><svg xmlns="http://www.w3.org/2000/svg" xmlns:xlink="http://www.w3.org/1999/xlink" version="1.1" x="0" y="0" viewBox="4.967 5 90.001 90" enable-background="new 0 0 100 100" xml:space="preserve" height="115.22476785190176" width="115.22604812710013" class="icon-cg-0" data-fill-palette-color="accent" id="cg-0"><g fill="#0718c4" data-fill-palette-color="accent"><polygon points="81.588,69.219 76.042,77.733 49.901,5 30.566,58.797 24.486,43.546 4.967,95 17.555,95 45,95 64.794,95 82.249,95    94.968,95  " fill="#000000" data-fill-palette-color="accent"></polygon></g></svg></g></svg></g><g><path d="M51.809 80.589c-1.782 4.05-3.099 6.993-3.95 8.827v0c-0.744 1.691-1.336 2.978-1.775 3.86v0l-2.182 4.811c-0.156 0.355-0.464 0.622-0.923 0.8v0c-0.45 0.175-0.853 0.184-1.208 0.028v0l-12.979-5.71-5.662-2.492-4.859-2.072c-1.612-0.709-3.619-1.64-6.023-2.792v0c-0.515-0.226-1.807-0.864-3.876-1.914v0l-1.36-0.599c-1.103-0.485-1.894-1.089-2.373-1.812v0c-0.269-0.352-0.308-0.746-0.117-1.181v0c0.849-1.93 1.815-4.018 2.898-6.262v0c0.18-0.294 0.4-0.735 0.659-1.323v0c0.572-1.299 1.015-2.256 1.329-2.871v0l1.403-3.19c0.067-0.153 0.27-0.613 0.607-1.379 0.34-0.772 0.702-1.329 1.087-1.672v0c0.705-0.538 1.765-0.496 3.18 0.127v0l0.45 0.275c0.116 0.051 0.393 0.22 0.83 0.508v0c0.537 0.375 0.943 0.624 1.219 0.744v0c0.435 0.191 1.012 0.376 1.731 0.554v0c0.507 0.128 0.84 0.227 1 0.297v0l0.377 0.089 8.264 3.636 3.833 1.686 3.658 1.61 0.708 0.311c0.313 0.138 0.585 0.049 0.818-0.265v0c0.097-0.104 0.232-0.352 0.405-0.743v0l1.892-4.302c0.426-1.085 1.115-2.709 2.067-4.872v0c0.189-0.429 0.472-0.725 0.851-0.888 0.379-0.163 0.703-0.184 0.973-0.065v0l11.269 4.958 0.119 0.052c0.319 0.14 0.507 0.41 0.566 0.809v0c-0.003 0.423-0.087 0.88-0.252 1.37v0c-0.107 0.56-0.404 1.391-0.889 2.495v0z" fill="#000000" data-fill-palette-color="accent"></path><path d="M109.341 40.121c-0.764 0.091-1.345-0.618-1.741-2.128v0c-0.209-0.622-0.344-1.189-0.405-1.702v0c-0.082-0.685-0.153-1.108-0.213-1.269v0c-0.194-1.231-0.535-3.182-1.023-5.855v0l-0.48-2.41c-0.707-3.718-1.168-6.475-1.383-8.269v0l-1.858-15.555c-0.041-0.339 0.314-0.641 1.065-0.906v0c0.41-0.177 0.998-0.311 1.762-0.403v0c0.512-0.061 1.071-0.094 1.677-0.099 0.605-0.012 1.058-0.035 1.357-0.071v0c0.648 0.01 1.657-0.067 3.027-0.231v0l0.226-0.219 2.822-0.337c0.141 0.111 0.298 0.157 0.472 0.136v0l0.249-0.03c0.042-0.045 0.146-0.078 0.312-0.098v0c0.081-0.057 0.208-0.096 0.38-0.116v0c0.035-0.045 0.076-0.07 0.123-0.075 0.04-0.005 0.06-0.007 0.06-0.008v0c0.126-0.015 0.279-0.003 0.459 0.037 0.181 0.046 0.314 0.064 0.401 0.053v0l4.736-0.566 1.505 10.985c0.005 0.04-0.012 0.183-0.05 0.431-0.032 0.24-0.048 0.555-0.049 0.947v0c0.057 1.551 0.139 2.775 0.247 3.672v0l1.49 12.474 0.102 2.455c-0.005 1.086 0.056 1.965 0.183 2.638v0c0.107 0.897 0.159 1.616 0.157 2.156 0.005 0.546-0.085 0.978-0.27 1.296v0c-0.217 0.329-0.604 0.527-1.163 0.594v0l-0.067-0.052-0.197-0.038c-0.086 0.01-0.127 0.035-0.122 0.076v0l-0.319 0.038c-0.249 0.117-0.391 0.198-0.426 0.243v0c-0.213 0.025-0.712 0.021-1.499-0.013v0l-0.904 0.047c-0.213 0.025-0.329 0.124-0.349 0.295v0l-4.796 0.573-0.898 0.107-1.627 0.518-1.512 0.383z" fill="#000000" data-fill-palette-color="accent"></path><path d="M181.21 65.457c-0.207-0.328-0.331-0.606-0.372-0.834v0l-0.617-0.976-0.52-0.824-0.235-0.374-0.824-2.377 0.275-0.411 0.543-0.343 1.446-0.984c0.605-0.485 1.145-0.877 1.62-1.177v0l4.112-2.667c0.371-0.29 0.902-0.653 1.593-1.088v0c1.67-1.054 3.322-2.018 4.956-2.891v0c1.062-0.575 2.719-1.574 4.972-2.996v0c0.362-0.229 0.649-0.457 0.862-0.686v0l0.543-0.343 0.294-0.269c0.832-0.525 1.684-0.988 2.556-1.388v0l2.924-1.763 1.271-0.885 1.248-0.787c0.045-0.179 0.139-0.313 0.28-0.403v0c0.549-0.347 1.226-0.164 2.032 0.547v0c0.463 0.42 0.936 1.012 1.418 1.776v0l5.022 7.957 2.287 3.735c0 0-0.002 0.041-0.006 0.122 0.002 0.078-0.013 0.174-0.044 0.289v0c-0.103 0.477-0.301 1.009-0.594 1.598v0c-0.336 0.671-0.745 1.309-1.226 1.914v0c-0.564 0.712-1.524 2.007-2.881 3.884v0c-1.124 1.517-1.999 2.754-2.622 3.71v0c-0.758 0.882-1.02 1.507-0.788 1.875v0c0.204 0.323 0.598 0.426 1.182 0.311v0c0.12 0.027 0.425-0.011 0.914-0.114v0l2.573-0.401c0.19-0.025 0.895-0.118 2.116-0.279v0c0.253-0.001 1.103-0.102 2.551-0.304v0l2.256-0.283c0.262-0.062 0.601-0.126 1.019-0.192 0.421-0.06 0.833-0.091 1.236-0.092v0c0.812-0.006 1.378 0.045 1.699 0.151v0c0.194-0.019 0.335 0.042 0.424 0.183v0l2.394 3.679 4.985 7.898 0.412 0.654 0.311 0.492 0.413 0.654c0.059 0.169 0.249 0.508 0.571 1.017v0c0.021 0.034-0.172 0.255-0.58 0.663v0c-1.78 1.282-3.233 2.278-4.359 2.989v0c-1.335 0.946-3.401 2.301-6.197 4.066v0l-2.726 1.721c-1.636 1.033-4.073 2.365-7.31 3.996v0l-1.631 1.03c-0.451 0.34-1.095 0.774-1.932 1.303v0l-2.253 1.492c-0.414 0.309-0.984 0.692-1.708 1.15v0c-0.657 0.415-1.083 0.711-1.279 0.89v0l-0.543 0.343-0.484 0.08-1.792-1.766-0.279-0.442-0.482-0.764-0.585-0.926c-0.209-0.169-0.418-0.417-0.625-0.745v0c-0.893-1.415-1.748-2.907-2.563-4.474-0.813-1.577-1.317-2.557-1.511-2.941v0l-0.185-0.18-0.172-0.272c-0.139-0.221 0.136-0.549 0.827-0.985v0c0.831-0.778 2.863-2.187 6.095-4.228v0c0.859-0.645 2.07-1.461 3.633-2.447v0c0.255-0.161 0.302-0.369 0.141-0.623v0c-0.068-0.108-0.28-0.124-0.637-0.05v0c-1.654 0.276-2.68 0.464-3.076 0.564v0l-1.387 0.342-1.148 0.119c-1.864 0.258-3.434 0.26-4.711 0.005v0c-0.776-0.175-1.324-0.518-1.646-1.028v0l-0.445-0.704-0.622-0.986c-0.297-0.47-0.495-0.828-0.595-1.073v0c-0.25-0.396-0.415-0.696-0.495-0.898v0c1.16-2.514 2.576-5.062 4.247-7.645v0c0.347-0.417 0.623-0.781 0.83-1.094 0.21-0.307 0.402-0.567 0.576-0.779v0c0.202-0.483 0.302-0.725 0.302-0.726v0c-0.161-0.255-0.369-0.302-0.623-0.141v0l-2.182 1.378c-2.214 1.397-3.821 2.388-4.822 2.972v0c-1.563 0.986-2.796 1.61-3.699 1.872v0c-0.169 0.059-0.325 0.094-0.468 0.105-0.14 0.017-0.233-0.011-0.279-0.085v0l-0.172-0.271-0.088-0.253c-0.241-0.307-0.891-1.155-1.951-2.545-1.054-1.393-2.05-2.834-2.99-4.324z" fill="#000000" data-fill-palette-color="accent"></path><path d="M16.957 178.82c-1.774-4.039-3.046-6.987-3.817-8.842v0c-0.74-1.686-1.287-2.988-1.64-3.908v0l-2.061-4.842c-0.153-0.349-0.142-0.749 0.033-1.199v0c0.173-0.456 0.437-0.762 0.792-0.919v0l12.928-5.677 5.636-2.475 4.794-2.171c1.606-0.705 3.643-1.552 6.111-2.541v0c0.509-0.223 1.846-0.741 4.012-1.554v0l1.352-0.594c1.097-0.482 2.071-0.654 2.922-0.515v0c0.442 0.04 0.758 0.278 0.949 0.713v0c0.843 1.919 1.722 4.029 2.638 6.332v0c0.101 0.329 0.28 0.787 0.538 1.376v0c0.568 1.293 0.968 2.262 1.2 2.906v0l1.397 3.182c0.067 0.153 0.269 0.613 0.606 1.379 0.334 0.76 0.498 1.401 0.493 1.922v0c-0.083 0.877-0.829 1.625-2.239 2.244v0l-0.497 0.142c-0.116 0.051-0.428 0.141-0.935 0.268v0c-0.633 0.139-1.088 0.269-1.364 0.391v0c-0.435 0.191-0.958 0.49-1.569 0.897v0c-0.437 0.287-0.732 0.464-0.886 0.532v0l-0.33 0.221-8.22 3.61-3.825 1.68-3.641 1.599-0.708 0.311c-0.313 0.137-0.432 0.398-0.358 0.782v0c0.014 0.133 0.108 0.395 0.28 0.788v0l1.886 4.294c0.5 1.038 1.223 2.636 2.171 4.793v0c0.188 0.429 0.218 0.837 0.087 1.223-0.136 0.389-0.339 0.643-0.609 0.761v0l-11.226 4.931-0.12 0.052c-0.313 0.137-0.637 0.09-0.973-0.143v0c-0.307-0.282-0.585-0.65-0.835-1.103v0c-0.34-0.458-0.751-1.235-1.233-2.332v0z" fill="#000000" data-fill-palette-color="accent"></path><path d="M104.707 243.488c-0.764-0.091-1.159-0.913-1.183-2.466v0c-0.057-0.654-0.055-1.237 0.006-1.749v0c0.081-0.678 0.111-1.103 0.091-1.274v0c0.107-1.241 0.233-3.208 0.378-5.901v0l0.099-2.446c0.185-3.767 0.384-6.545 0.596-8.333v0l1.842-15.486c0.04-0.339 0.456-0.546 1.247-0.62v0c0.435-0.083 1.034-0.079 1.799 0.012v0c0.512 0.061 1.063 0.16 1.653 0.297 0.584 0.137 1.025 0.223 1.325 0.259v0c0.629 0.156 1.621 0.314 2.977 0.475v0l0.282-0.158 2.802 0.333c0.111 0.141 0.253 0.222 0.426 0.243v0l0.249 0.03c0.051-0.034 0.16-0.042 0.327-0.022v0c0.091-0.03 0.22-0.035 0.386-0.015v0c0.052-0.041 0.098-0.059 0.138-0.054 0.047 0.006 0.07 0.008 0.069 0.008v0c0.126 0.015 0.269 0.066 0.427 0.152 0.166 0.08 0.292 0.126 0.378 0.136v0l4.717 0.561-1.114 10.981c-0.006 0.047-0.055 0.182-0.149 0.407-0.088 0.226-0.177 0.528-0.27 0.909v0c-0.308 1.514-0.515 2.716-0.621 3.607v0l-1.478 12.425-0.478 2.4c-0.253 1.049-0.4 1.914-0.44 2.597v0c-0.106 0.891-0.22 1.599-0.344 2.124-0.13 0.524-0.319 0.923-0.567 1.196v0c-0.287 0.262-0.707 0.361-1.259 0.296v0l-0.062-0.068-0.183-0.083c-0.086-0.01-0.132 0.005-0.136 0.045v0l-0.319-0.038c-0.263 0.056-0.417 0.102-0.462 0.137v0c-0.213-0.025-0.694-0.147-1.443-0.364v0l-0.89-0.166c-0.213-0.025-0.349 0.043-0.409 0.204v0l-4.786-0.569-0.888-0.106-1.693 0.122-1.558 0.007z" fill="#000000" data-fill-palette-color="accent"></path><path d="M213.835 199.067c-0.207 0.329-0.404 0.56-0.591 0.695v0l-0.616 0.977-0.513 0.816-0.235 0.374-1.785 1.76-0.484-0.079-0.544-0.342-1.499-0.861c-0.698-0.336-1.282-0.653-1.752-0.948v0l-4.163-2.549c-0.418-0.216-0.973-0.541-1.664-0.976v0c-1.666-1.048-3.244-2.117-4.734-3.205v0c-0.968-0.712-2.574-1.774-4.817-3.186v0c-0.363-0.228-0.692-0.384-0.988-0.467v0l-0.544-0.342-0.369-0.15c-0.833-0.524-1.61-1.093-2.332-1.705v0l-2.849-1.864-1.332-0.767-1.25-0.787c-0.179 0.046-0.342 0.022-0.489-0.07v0c-0.544-0.342-0.669-1.03-0.375-2.063v0c0.176-0.593 0.503-1.27 0.981-2.029v0l4.99-7.93 2.378-3.665c0 0 0.038-0.016 0.113-0.047 0.066-0.03 0.159-0.058 0.279-0.086v0c0.471-0.107 1.032-0.157 1.685-0.15v0c0.751 0.014 1.503 0.107 2.255 0.281v0c0.88 0.198 2.455 0.505 4.725 0.92v0c1.848 0.356 3.331 0.609 4.447 0.758v0c1.122 0.303 1.798 0.273 2.026-0.089v0c0.207-0.329 0.132-0.732-0.224-1.209v0c-0.025-0.111-0.193-0.366-0.502-0.767v0l-1.461-2.129c-0.101-0.166-0.484-0.764-1.15-1.792v0c-0.114-0.222-0.573-0.938-1.377-2.148v0l-1.22-1.907c-0.175-0.213-0.377-0.494-0.608-0.845-0.239-0.348-0.447-0.704-0.621-1.068v0c-0.35-0.726-0.547-1.254-0.593-1.583v0c-0.101-0.166-0.105-0.323-0.013-0.471v0l2.271-3.72 4.958-7.879 0.412-0.654 0.305-0.485 0.412-0.654c0.123-0.12 0.345-0.435 0.666-0.946v0c0.021-0.034 0.301 0.043 0.839 0.232v0c1.918 1.049 3.439 1.927 4.561 2.633v0c1.42 0.799 3.523 2.075 6.31 3.829v0l2.72 1.712c1.626 1.023 3.87 2.637 6.73 4.841v0l1.632 1.027c0.495 0.256 1.159 0.647 1.992 1.171v0l2.31 1.382c0.458 0.241 1.049 0.589 1.775 1.046v0c0.652 0.41 1.098 0.663 1.337 0.759v0l0.544 0.342 0.281 0.402-0.815 2.37-0.273 0.434-0.481 0.765-0.578 0.917c-0.065 0.267-0.2 0.562-0.403 0.886v0c-0.891 1.416-1.867 2.828-2.926 4.234-1.065 1.402-1.728 2.274-1.99 2.615v0l-0.083 0.245-0.171 0.272c-0.136 0.215-0.546 0.107-1.231-0.324v0c-1.055-0.411-3.194-1.63-6.418-3.66v0c-0.953-0.497-2.206-1.234-3.758-2.211v0c-0.255-0.16-0.463-0.113-0.624 0.142v0c-0.068 0.108 0.009 0.306 0.231 0.596v0c0.961 1.364 1.572 2.203 1.832 2.517v0l0.898 1.1 0.594 0.979c1.04 1.564 1.718 2.976 2.034 4.234v0c0.174 0.766 0.101 1.404-0.22 1.914v0l-0.444 0.706-0.615 0.977c-0.296 0.47-0.529 0.802-0.698 0.996v0c-0.253 0.402-0.457 0.682-0.611 0.838v0c-2.75 0.033-5.643-0.146-8.679-0.538v0c-0.529-0.127-0.977-0.22-1.344-0.276-0.367-0.057-0.682-0.117-0.944-0.179v0c-0.523 0.027-0.785 0.04-0.784 0.04v0c-0.16 0.255-0.113 0.463 0.141 0.623v0l2.168 1.364c2.21 1.391 3.794 2.412 4.752 3.063v0c1.552 0.977 2.643 1.814 3.273 2.51v0c0.117 0.129 0.213 0.253 0.289 0.372 0.072 0.124 0.085 0.223 0.038 0.297v0l-0.171 0.272-0.185 0.18c-0.173 0.35-0.654 1.297-1.444 2.841-0.799 1.546-1.666 3.061-2.6 4.546z" fill="#000000" data-fill-palette-color="accent"></path><path d="M4.941 122.099c0-9.152 7.419-16.572 16.572-16.572 9.152 0 16.572 7.419 16.572 16.572 0 9.152-7.419 16.572-16.572 16.572-9.152 0-16.572-7.419-16.572-16.572z" fill="#000000" data-fill-palette-color="accent"></path><path d="M206.885 122.099c0-9.152 7.419-16.572 16.572-16.572 9.152 0 16.572 7.419 16.572 16.572 0 9.152-7.419 16.572-16.572 16.572-9.152 0-16.572-7.419-16.572-16.572z" fill="#000000" data-fill-palette-color="accent"></path></g></svg></g></svg></g></svg></g></svg></g><defs></defs></svg><rect width="395.52" height="132.72156968746083" fill="none" stroke="none" visibility="hidden"></rect></g></svg></g></svg>